<!DOCTYPE svg PUBLIC "-//W3C//DTD SVG 1.1//EN" "http://www.w3.org/Graphics/SVG/1.1/DTD/svg11.dtd">
<!-- Uploaded to: SVG Repo, www.svgrepo.com, Transformed by: SVG Repo Mixer Tools -->
<svg fill="#000000" width="800px" height="800px" viewBox="0 0 24 24" id="right-double-arrow" data-name="Flat Color" xmlns="http://www.w3.org/2000/svg" class="icon flat-color">
<g id="SVGRepo_bgCarrier" stroke-width="0"/>
<g id="SVGRepo_tracerCarrier" stroke-linecap="round" stroke-linejoin="round"/>
<g id="SVGRepo_iconCarrier">
<path id="secondary" d="M20.71,16.29l-3-3a1,1,0,0,0-1.42,1.42L17.59,16H4a1,1,0,0,0,0,2H17.59l-1.3,1.29a1,1,0,0,0,0,1.42,1,1,0,0,0,1.42,0l3-3A1,1,0,0,0,20.71,16.29Z" style="fill: #2ca9bc;"/>
<path id="primary" d="M20.71,6.29l-3-3a1,1,0,0,0-1.42,1.42L17.59,6H4A1,1,0,0,0,4,8H17.59l-1.3,1.29a1,1,0,0,0,0,1.42,1,1,0,0,0,1.42,0l3-3A1,1,0,0,0,20.71,6.29Z" style="fill: #000000;"/>
</g>
</svg>